# xmcd
# 
# Track frame offsets:
#     150
#     17940
#     31405
#     46880
#     66400
#     90022
#     102110
#     115012
#     130275
#     145947
#     153670
# 
# Disc length: 2429
# 
# Revision: 12
# Processed by: cddbd v1.5.2PL0 Copyright (c) Steve Scherf et al.
# Submitted via: fre:ac v1.0.31
# 
DISCID=8c097b0b
DTITLE=Putumayo Presents - Putumayo Presents  Blues Around The World
DYEAR=2006
DGENRE=World
TTITLE0=The Unseen Guest - Listen My Son (Ireland - India)
TTITLE1=Blues Etilicos - Canceriano Sem Lar (Clinica Tobias Blues) (Brazil)
TTITLE2=Big Mama and Victor Urís - No Way Out (Catalonia - Spain)
TTITLE3=Jarabe De Palo - La Flaca (Spain)
TTITLE4=Bonnie Raitt with Habib Koité - Back Around (USA - Mali)
TTITLE5=Amar Sundy - Ouallache (Mauritania)
TTITLE6=Otis Spann - I Got A Feeling (USA)
TTITLE7=Eric Bibb, Rory Block and Maria Muldaur - Don't Ever Let Nobody Drag Your Spirit Down (USA)
TTITLE8=Long-ge - Playing Mahjong (Taiwan)
TTITLE9=Botafogo - Slide Blues (Argentina)
TTITLE10=Taj Mahal Meets the Culture Musical Club Of Zanzibar - Catfish Blues (USA - Zanzibar)
EXTD=http://www.putumayo.com\nCatalog # PUT 253-2\nSubmitted by DJ Neo YEAR: 2006
EXTT0=
EXTT1=
EXTT2=
EXTT3=
EXTT4=
EXTT5=
EXTT6=
EXTT7=
EXTT8=
EXTT9=
EXTT10=
PLAYORDER=
